<?xml version="1.0" encoding="UTF-8" standalone="no"?>
<!DOCTYPE svg PUBLIC "-//W3C//DTD SVG 1.1//EN"
 "http://www.w3.org/Graphics/SVG/1.1/DTD/svg11.dtd">
<!-- Generated by graphviz version 2.26.0 (20091210.2329)
 -->
<!-- Title: _anonymous_0 Pages: 1 -->
<svg width="566pt" height="220pt"
 viewBox="0.00 0.00 566.00 219.74" xmlns="http://www.w3.org/2000/svg" xmlns:xlink="http://www.w3.org/1999/xlink">
<g id="graph1" class="graph" transform="scale(1 1) rotate(0) translate(4 215.738)">
<title>_anonymous_0</title>
<polygon fill="white" stroke="white" points="-4,5 -4,-215.738 563,-215.738 563,5 -4,5"/>
<!-- 13 -->
<g id="node2" class="node"><title>13</title>
<ellipse fill="none" stroke="black" cx="99" cy="-162" rx="27" ry="18"/>
<text text-anchor="middle" x="99" y="-157.4" font-family="Times New Roman,serif" font-size="14.00">13</text>
</g>
<!-- 9 -->
<g id="node5" class="node"><title>9</title>
<ellipse fill="none" stroke="black" cx="171" cy="-162" rx="27" ry="18"/>
<text text-anchor="middle" x="171" y="-157.4" font-family="Times New Roman,serif" font-size="14.00">9</text>
</g>
<!-- 13&#45;&gt;9 -->
<g id="edge111" class="edge"><title>13&#45;&gt;9</title>
<path fill="none" stroke="black" d="M120.375,-173.272C126.777,-175.223 133.18,-175.892 139.582,-175.281"/>
<polygon fill="black" stroke="black" points="140.525,-178.662 149.643,-173.267 139.15,-171.798 140.525,-178.662"/>
</g>
<!-- 12 -->
<g id="node7" class="node"><title>12</title>
<ellipse fill="none" stroke="black" cx="459" cy="-162" rx="27" ry="18"/>
<text text-anchor="middle" x="459" y="-157.4" font-family="Times New Roman,serif" font-size="14.00">12</text>
</g>
<!-- 13&#45;&gt;12 -->
<g id="edge113" class="edge"><title>13&#45;&gt;12</title>
<path fill="none" stroke="black" d="M111.85,-177.969C120.61,-187.518 133.11,-198.781 147,-204 174.459,-214.317 383.541,-214.317 411,-204 421.417,-200.086 431.053,-192.772 438.915,-185.331"/>
<polygon fill="black" stroke="black" points="441.637,-187.555 446.15,-177.969 436.644,-182.648 441.637,-187.555"/>
</g>
<!-- 5 -->
<g id="node17" class="node"><title>5</title>
<ellipse fill="none" stroke="black" cx="27" cy="-90" rx="27" ry="18"/>
<text text-anchor="middle" x="27" y="-85.4" font-family="Times New Roman,serif" font-size="14.00">5</text>
</g>
<!-- 13&#45;&gt;5 -->
<g id="edge109" class="edge"><title>13&#45;&gt;5</title>
<path fill="none" stroke="black" d="M80.43,-148.794C69.4253,-139.162 55.7428,-125.833 44.8776,-114.3"/>
<polygon fill="black" stroke="black" points="47.2144,-111.67 37.8732,-106.671 42.0579,-116.404 47.2144,-111.67"/>
</g>
<!-- 15 -->
<g id="node19" class="node"><title>15</title>
<ellipse fill="none" stroke="black" cx="387" cy="-90" rx="27" ry="18"/>
<text text-anchor="middle" x="387" y="-85.4" font-family="Times New Roman,serif" font-size="14.00">15</text>
</g>
<!-- 13&#45;&gt;15 -->
<g id="edge115" class="edge"><title>13&#45;&gt;15</title>
<path fill="none" stroke="black" d="M116.029,-147.891C119.279,-146.426 122.677,-145.08 126,-144 218.554,-113.903 249.446,-138.097 342,-108 345.962,-106.712 350.032,-105.047 354.057,-103.251"/>
<polygon fill="black" stroke="black" points="355.717,-106.339 363.299,-98.9383 352.757,-99.9954 355.717,-106.339"/>
</g>
<!-- 11 -->
<g id="node3" class="node"><title>11</title>
<ellipse fill="none" stroke="black" cx="243" cy="-162" rx="27" ry="18"/>
<text text-anchor="middle" x="243" y="-157.4" font-family="Times New Roman,serif" font-size="14.00">11</text>
</g>
<!-- 11&#45;&gt;9 -->
<g id="edge95" class="edge"><title>11&#45;&gt;9</title>
<path fill="none" stroke="black" d="M221.643,-173.267C215.24,-175.22 208.838,-175.892 202.436,-175.283"/>
<polygon fill="black" stroke="black" points="202.867,-171.8 192.375,-173.272 201.495,-178.664 202.867,-171.8"/>
</g>
<!-- 10 -->
<g id="node6" class="node"><title>10</title>
<ellipse fill="none" stroke="black" cx="315" cy="-162" rx="27" ry="18"/>
<text text-anchor="middle" x="315" y="-157.4" font-family="Times New Roman,serif" font-size="14.00">10</text>
</g>
<!-- 11&#45;&gt;10 -->
<g id="edge97" class="edge"><title>11&#45;&gt;10</title>
<path fill="none" stroke="black" d="M264.375,-173.272C270.777,-175.223 277.18,-175.892 283.582,-175.281"/>
<polygon fill="black" stroke="black" points="284.525,-178.662 293.643,-173.267 283.15,-171.798 284.525,-178.662"/>
</g>
<!-- 3 -->
<g id="node13" class="node"><title>3</title>
<ellipse fill="none" stroke="black" cx="171" cy="-90" rx="27" ry="18"/>
<text text-anchor="middle" x="171" y="-85.4" font-family="Times New Roman,serif" font-size="14.00">3</text>
</g>
<!-- 11&#45;&gt;3 -->
<g id="edge93" class="edge"><title>11&#45;&gt;3</title>
<path fill="none" stroke="black" d="M224.43,-148.794C213.425,-139.162 199.743,-125.833 188.878,-114.3"/>
<polygon fill="black" stroke="black" points="191.214,-111.67 181.873,-106.671 186.058,-116.404 191.214,-111.67"/>
</g>
<!-- 11&#45;&gt;15 -->
<g id="edge99" class="edge"><title>11&#45;&gt;15</title>
<path fill="none" stroke="black" d="M262.816,-149.459C286.52,-136.644 326.143,-116.807 354.346,-103.616"/>
<polygon fill="black" stroke="black" points="355.823,-106.789 363.433,-99.4174 352.887,-100.435 355.823,-106.789"/>
</g>
<!-- 14 -->
<g id="node4" class="node"><title>14</title>
<ellipse fill="none" stroke="black" cx="387" cy="-162" rx="27" ry="18"/>
<text text-anchor="middle" x="387" y="-157.4" font-family="Times New Roman,serif" font-size="14.00">14</text>
</g>
<!-- 14&#45;&gt;10 -->
<g id="edge119" class="edge"><title>14&#45;&gt;10</title>
<path fill="none" stroke="black" d="M365.643,-173.267C359.24,-175.22 352.838,-175.892 346.436,-175.283"/>
<polygon fill="black" stroke="black" points="346.867,-171.8 336.375,-173.272 345.495,-178.664 346.867,-171.8"/>
</g>
<!-- 14&#45;&gt;12 -->
<g id="edge121" class="edge"><title>14&#45;&gt;12</title>
<path fill="none" stroke="black" d="M408.375,-173.272C414.777,-175.223 421.18,-175.892 427.582,-175.281"/>
<polygon fill="black" stroke="black" points="428.525,-178.662 437.643,-173.267 427.15,-171.798 428.525,-178.662"/>
</g>
<!-- 6 -->
<g id="node18" class="node"><title>6</title>
<ellipse fill="none" stroke="black" cx="315" cy="-90" rx="27" ry="18"/>
<text text-anchor="middle" x="315" y="-85.4" font-family="Times New Roman,serif" font-size="14.00">6</text>
</g>
<!-- 14&#45;&gt;6 -->
<g id="edge117" class="edge"><title>14&#45;&gt;6</title>
<path fill="none" stroke="black" d="M368.43,-148.794C357.425,-139.162 343.743,-125.833 332.878,-114.3"/>
<polygon fill="black" stroke="black" points="335.214,-111.67 325.873,-106.671 330.058,-116.404 335.214,-111.67"/>
</g>
<!-- 14&#45;&gt;15 -->
<g id="edge123" class="edge"><title>14&#45;&gt;15</title>
<path fill="none" stroke="black" d="M381.084,-144.202C380.28,-136.181 380.057,-126.523 380.416,-117.596"/>
<polygon fill="black" stroke="black" points="383.91,-117.81 381.105,-107.593 376.926,-117.329 383.91,-117.81"/>
</g>
<!-- 9&#45;&gt;13 -->
<g id="edge83" class="edge"><title>9&#45;&gt;13</title>
<path fill="none" stroke="black" d="M149.643,-150.733C143.24,-148.78 136.838,-148.108 130.436,-148.717"/>
<polygon fill="black" stroke="black" points="129.495,-145.336 120.375,-150.728 130.867,-152.2 129.495,-145.336"/>
</g>
<!-- 9&#45;&gt;11 -->
<g id="edge81" class="edge"><title>9&#45;&gt;11</title>
<path fill="none" stroke="black" d="M192.375,-150.728C198.777,-148.777 205.18,-148.108 211.582,-148.719"/>
<polygon fill="black" stroke="black" points="211.15,-152.202 221.643,-150.733 212.525,-145.338 211.15,-152.202"/>
</g>
<!-- 8 -->
<g id="node12" class="node"><title>8</title>
<ellipse fill="none" stroke="black" cx="531" cy="-90" rx="27" ry="18"/>
<text text-anchor="middle" x="531" y="-85.4" font-family="Times New Roman,serif" font-size="14.00">8</text>
</g>
<!-- 9&#45;&gt;8 -->
<g id="edge79" class="edge"><title>9&#45;&gt;8</title>
<path fill="none" stroke="black" d="M187.988,-147.758C191.245,-146.316 194.656,-145.012 198,-144 321.461,-106.619 362.539,-145.381 486,-108 489.988,-106.793 494.071,-105.171 498.102,-103.394"/>
<polygon fill="black" stroke="black" points="499.76,-106.483 507.346,-99.0867 496.803,-100.138 499.76,-106.483"/>
</g>
<!-- 1 -->
<g id="node14" class="node"><title>1</title>
<ellipse fill="none" stroke="black" cx="99" cy="-90" rx="27" ry="18"/>
<text text-anchor="middle" x="99" y="-85.4" font-family="Times New Roman,serif" font-size="14.00">1</text>
</g>
<!-- 9&#45;&gt;1 -->
<g id="edge77" class="edge"><title>9&#45;&gt;1</title>
<path fill="none" stroke="black" d="M152.43,-148.794C141.425,-139.162 127.743,-125.833 116.878,-114.3"/>
<polygon fill="black" stroke="black" points="119.214,-111.67 109.873,-106.671 114.058,-116.404 119.214,-111.67"/>
</g>
<!-- 10&#45;&gt;11 -->
<g id="edge89" class="edge"><title>10&#45;&gt;11</title>
<path fill="none" stroke="black" d="M293.643,-150.733C287.24,-148.78 280.838,-148.108 274.436,-148.717"/>
<polygon fill="black" stroke="black" points="273.495,-145.336 264.375,-150.728 274.867,-152.2 273.495,-145.336"/>
</g>
<!-- 10&#45;&gt;14 -->
<g id="edge91" class="edge"><title>10&#45;&gt;14</title>
<path fill="none" stroke="black" d="M336.375,-150.728C342.777,-148.777 349.18,-148.108 355.582,-148.719"/>
<polygon fill="black" stroke="black" points="355.15,-152.202 365.643,-150.733 356.525,-145.338 355.15,-152.202"/>
</g>
<!-- 10&#45;&gt;8 -->
<g id="edge87" class="edge"><title>10&#45;&gt;8</title>
<path fill="none" stroke="black" d="M332.507,-147.966C335.623,-146.524 338.854,-145.164 342,-144 403.872,-121.112 424.128,-130.888 486,-108 489.908,-106.554 493.948,-104.806 497.961,-102.974"/>
<polygon fill="black" stroke="black" points="499.625,-106.059 507.199,-98.6506 496.658,-99.7191 499.625,-106.059"/>
</g>
<!-- 2 -->
<g id="node15" class="node"><title>2</title>
<ellipse fill="none" stroke="black" cx="243" cy="-90" rx="27" ry="18"/>
<text text-anchor="middle" x="243" y="-85.4" font-family="Times New Roman,serif" font-size="14.00">2</text>
</g>
<!-- 10&#45;&gt;2 -->
<g id="edge85" class="edge"><title>10&#45;&gt;2</title>
<path fill="none" stroke="black" d="M296.43,-148.794C285.425,-139.162 271.743,-125.833 260.878,-114.3"/>
<polygon fill="black" stroke="black" points="263.214,-111.67 253.873,-106.671 258.058,-116.404 263.214,-111.67"/>
</g>
<!-- 12&#45;&gt;13 -->
<g id="edge105" class="edge"><title>12&#45;&gt;13</title>
<path fill="none" stroke="black" d="M443.155,-176.891C435.791,-182.812 426.557,-188.937 417,-192 387.796,-201.359 170.204,-201.359 141,-192 134.728,-189.99 128.595,-186.661 123.039,-182.937"/>
<polygon fill="black" stroke="black" points="124.97,-180.012 114.845,-176.891 120.814,-185.644 124.97,-180.012"/>
</g>
<!-- 12&#45;&gt;14 -->
<g id="edge107" class="edge"><title>12&#45;&gt;14</title>
<path fill="none" stroke="black" d="M437.643,-150.733C431.24,-148.78 424.838,-148.108 418.436,-148.717"/>
<polygon fill="black" stroke="black" points="417.495,-145.336 408.375,-150.728 418.867,-152.2 417.495,-145.336"/>
</g>
<!-- 12&#45;&gt;8 -->
<g id="edge103" class="edge"><title>12&#45;&gt;8</title>
<path fill="none" stroke="black" d="M469.898,-145.301C479.249,-134.805 492.744,-121.201 504.759,-110.113"/>
<polygon fill="black" stroke="black" points="507.293,-112.541 512.382,-103.248 502.609,-107.339 507.293,-112.541"/>
</g>
<!-- 4 -->
<g id="node16" class="node"><title>4</title>
<ellipse fill="none" stroke="black" cx="459" cy="-90" rx="27" ry="18"/>
<text text-anchor="middle" x="459" y="-85.4" font-family="Times New Roman,serif" font-size="14.00">4</text>
</g>
<!-- 12&#45;&gt;4 -->
<g id="edge101" class="edge"><title>12&#45;&gt;4</title>
<path fill="none" stroke="black" d="M453.084,-144.202C452.28,-136.181 452.057,-126.523 452.416,-117.596"/>
<polygon fill="black" stroke="black" points="455.91,-117.81 453.105,-107.593 448.926,-117.329 455.91,-117.81"/>
</g>
<!-- 7 -->
<g id="node9" class="node"><title>7</title>
<ellipse fill="none" stroke="black" cx="171" cy="-18" rx="27" ry="18"/>
<text text-anchor="middle" x="171" y="-13.4" font-family="Times New Roman,serif" font-size="14.00">7</text>
</g>
<!-- 7&#45;&gt;3 -->
<g id="edge61" class="edge"><title>7&#45;&gt;3</title>
<path fill="none" stroke="black" d="M176.895,-35.593C177.709,-43.5865 177.942,-53.2363 177.593,-62.1759"/>
<polygon fill="black" stroke="black" points="174.098,-61.9891 176.916,-72.2022 181.082,-62.4608 174.098,-61.9891"/>
</g>
<!-- 7&#45;&gt;5 -->
<g id="edge63" class="edge"><title>7&#45;&gt;5</title>
<path fill="none" stroke="black" d="M151.041,-30.6187C127.326,-43.4328 87.8149,-63.2122 59.6698,-76.3764"/>
<polygon fill="black" stroke="black" points="57.8441,-73.3643 50.233,-80.7347 60.7791,-79.7193 57.8441,-73.3643"/>
</g>
<!-- 7&#45;&gt;6 -->
<g id="edge65" class="edge"><title>7&#45;&gt;6</title>
<path fill="none" stroke="black" d="M194.567,-27.4174C219.728,-38.8805 259.275,-58.4649 286.222,-72.6775"/>
<polygon fill="black" stroke="black" points="284.714,-75.8395 295.184,-77.4586 288.008,-69.6635 284.714,-75.8395"/>
</g>
<!-- 7&#45;&gt;15 -->
<g id="edge67" class="edge"><title>7&#45;&gt;15</title>
<path fill="none" stroke="black" d="M197.211,-22.9543C234.503,-31.3584 303.741,-49.6891 360,-72 360.097,-72.0386 360.195,-72.0774 360.293,-72.1164"/>
<polygon fill="black" stroke="black" points="358.873,-75.3155 369.438,-76.1099 361.674,-68.9005 358.873,-75.3155"/>
</g>
<!-- 0 -->
<g id="node10" class="node"><title>0</title>
<ellipse fill="none" stroke="black" cx="351" cy="-18" rx="27" ry="18"/>
<text text-anchor="middle" x="351" y="-13.4" font-family="Times New Roman,serif" font-size="14.00">0</text>
</g>
<!-- 0&#45;&gt;8 -->
<g id="edge11" class="edge"><title>0&#45;&gt;8</title>
<path fill="none" stroke="black" d="M376.279,-24.5323C407.244,-34.1069 460.191,-52.8963 504,-72 504.096,-72.0419 504.192,-72.0839 504.289,-72.1261"/>
<polygon fill="black" stroke="black" points="502.806,-75.2967 513.352,-76.3163 505.744,-68.9429 502.806,-75.2967"/>
</g>
<!-- 0&#45;&gt;1 -->
<g id="edge5" class="edge"><title>0&#45;&gt;1</title>
<path fill="none" stroke="black" d="M325.332,-23.6788C285.528,-31.8194 207.624,-48.4639 144,-72 140.092,-73.4455 136.052,-75.1941 132.039,-77.0263"/>
<polygon fill="black" stroke="black" points="130.375,-73.9408 122.801,-81.3494 133.342,-80.2809 130.375,-73.9408"/>
</g>
<!-- 0&#45;&gt;2 -->
<g id="edge7" class="edge"><title>0&#45;&gt;2</title>
<path fill="none" stroke="black" d="M334.84,-32.4634C318.556,-44.3437 293.393,-61.172 273.43,-73.5614"/>
<polygon fill="black" stroke="black" points="271.385,-70.7091 264.674,-78.9078 275.033,-76.6834 271.385,-70.7091"/>
</g>
<!-- 0&#45;&gt;4 -->
<g id="edge9" class="edge"><title>0&#45;&gt;4</title>
<path fill="none" stroke="black" d="M372.555,-29.021C390.469,-39.7487 415.694,-56.3125 434.369,-69.4709"/>
<polygon fill="black" stroke="black" points="432.525,-72.4551 442.693,-75.4297 436.599,-66.7631 432.525,-72.4551"/>
</g>
<!-- 8&#45;&gt;9 -->
<g id="edge71" class="edge"><title>8&#45;&gt;9</title>
<path fill="none" stroke="black" d="M514.012,-104.242C510.755,-105.684 507.344,-106.988 504,-108 380.539,-145.381 339.461,-106.619 216,-144 212.012,-145.207 207.929,-146.829 203.898,-148.606"/>
<polygon fill="black" stroke="black" points="202.24,-145.517 194.654,-152.913 205.197,-151.862 202.24,-145.517"/>
</g>
<!-- 8&#45;&gt;10 -->
<g id="edge73" class="edge"><title>8&#45;&gt;10</title>
<path fill="none" stroke="black" d="M513.493,-104.034C510.377,-105.476 507.146,-106.836 504,-108 442.128,-130.888 421.872,-121.112 360,-144 356.092,-145.446 352.052,-147.194 348.039,-149.026"/>
<polygon fill="black" stroke="black" points="346.375,-145.941 338.801,-153.349 349.342,-152.281 346.375,-145.941"/>
</g>
<!-- 8&#45;&gt;12 -->
<g id="edge75" class="edge"><title>8&#45;&gt;12</title>
<path fill="none" stroke="black" d="M520.127,-106.671C510.765,-117.181 497.24,-130.816 485.205,-141.921"/>
<polygon fill="black" stroke="black" points="482.66,-139.502 477.57,-148.794 487.344,-144.704 482.66,-139.502"/>
</g>
<!-- 8&#45;&gt;0 -->
<g id="edge69" class="edge"><title>8&#45;&gt;0</title>
<path fill="none" stroke="black" d="M506.645,-81.5706C499.852,-78.4202 492.661,-74.9048 486,-72 451.233,-56.8392 410.711,-41.8765 383.064,-31.5603"/>
<polygon fill="black" stroke="black" points="384.087,-28.2063 373.495,-27.978 381.633,-34.7619 384.087,-28.2063"/>
</g>
<!-- 3&#45;&gt;11 -->
<g id="edge35" class="edge"><title>3&#45;&gt;11</title>
<path fill="none" stroke="black" d="M189.618,-103.248C200.609,-112.872 214.26,-126.172 225.107,-137.684"/>
<polygon fill="black" stroke="black" points="222.76,-140.302 232.102,-145.301 227.916,-135.568 222.76,-140.302"/>
</g>
<!-- 3&#45;&gt;7 -->
<g id="edge33" class="edge"><title>3&#45;&gt;7</title>
<path fill="none" stroke="black" d="M165.084,-72.2022C164.28,-64.1807 164.057,-54.5231 164.416,-45.5957"/>
<polygon fill="black" stroke="black" points="167.91,-45.8099 165.105,-35.593 160.926,-45.3289 167.91,-45.8099"/>
</g>
<!-- 3&#45;&gt;1 -->
<g id="edge29" class="edge"><title>3&#45;&gt;1</title>
<path fill="none" stroke="black" d="M149.643,-101.267C143.24,-103.22 136.838,-103.892 130.436,-103.283"/>
<polygon fill="black" stroke="black" points="130.867,-99.8001 120.375,-101.272 129.495,-106.664 130.867,-99.8001"/>
</g>
<!-- 3&#45;&gt;2 -->
<g id="edge31" class="edge"><title>3&#45;&gt;2</title>
<path fill="none" stroke="black" d="M192.375,-101.272C198.777,-103.223 205.18,-103.892 211.582,-103.281"/>
<polygon fill="black" stroke="black" points="212.525,-106.662 221.643,-101.267 211.15,-99.7984 212.525,-106.662"/>
</g>
<!-- 1&#45;&gt;9 -->
<g id="edge19" class="edge"><title>1&#45;&gt;9</title>
<path fill="none" stroke="black" d="M117.618,-103.248C128.609,-112.872 142.26,-126.172 153.107,-137.684"/>
<polygon fill="black" stroke="black" points="150.76,-140.302 160.102,-145.301 155.916,-135.568 150.76,-140.302"/>
</g>
<!-- 1&#45;&gt;0 -->
<g id="edge13" class="edge"><title>1&#45;&gt;0</title>
<path fill="none" stroke="black" d="M116.507,-75.9658C119.623,-74.5238 122.854,-73.1637 126,-72 190.24,-48.2363 269.036,-31.4981 314.445,-23.445"/>
<polygon fill="black" stroke="black" points="315.167,-26.8722 324.426,-21.722 313.976,-19.9742 315.167,-26.8722"/>
</g>
<!-- 1&#45;&gt;3 -->
<g id="edge15" class="edge"><title>1&#45;&gt;3</title>
<path fill="none" stroke="black" d="M120.375,-78.728C126.777,-76.7773 133.18,-76.1075 139.582,-76.7187"/>
<polygon fill="black" stroke="black" points="139.15,-80.2016 149.643,-78.7334 140.525,-73.3379 139.15,-80.2016"/>
</g>
<!-- 1&#45;&gt;5 -->
<g id="edge17" class="edge"><title>1&#45;&gt;5</title>
<path fill="none" stroke="black" d="M77.6426,-78.7334C71.2403,-76.7803 64.838,-76.1082 58.4357,-76.717"/>
<polygon fill="black" stroke="black" points="57.495,-73.3357 48.375,-78.728 58.8671,-80.1999 57.495,-73.3357"/>
</g>
<!-- 2&#45;&gt;10 -->
<g id="edge27" class="edge"><title>2&#45;&gt;10</title>
<path fill="none" stroke="black" d="M261.618,-103.248C272.609,-112.872 286.26,-126.172 297.107,-137.684"/>
<polygon fill="black" stroke="black" points="294.76,-140.302 304.102,-145.301 299.916,-135.568 294.76,-140.302"/>
</g>
<!-- 2&#45;&gt;0 -->
<g id="edge21" class="edge"><title>2&#45;&gt;0</title>
<path fill="none" stroke="black" d="M259.307,-75.4297C275.632,-63.5281 300.783,-46.7133 320.708,-34.353"/>
<polygon fill="black" stroke="black" points="322.732,-37.2181 329.445,-29.021 319.085,-31.243 322.732,-37.2181"/>
</g>
<!-- 2&#45;&gt;3 -->
<g id="edge23" class="edge"><title>2&#45;&gt;3</title>
<path fill="none" stroke="black" d="M221.643,-78.7334C215.24,-76.7803 208.838,-76.1082 202.436,-76.717"/>
<polygon fill="black" stroke="black" points="201.495,-73.3357 192.375,-78.728 202.867,-80.1999 201.495,-73.3357"/>
</g>
<!-- 2&#45;&gt;6 -->
<g id="edge25" class="edge"><title>2&#45;&gt;6</title>
<path fill="none" stroke="black" d="M264.375,-78.728C270.777,-76.7773 277.18,-76.1075 283.582,-76.7187"/>
<polygon fill="black" stroke="black" points="283.15,-80.2016 293.643,-78.7334 284.525,-73.3379 283.15,-80.2016"/>
</g>
<!-- 4&#45;&gt;12 -->
<g id="edge43" class="edge"><title>4&#45;&gt;12</title>
<path fill="none" stroke="black" d="M464.895,-107.593C465.709,-115.586 465.942,-125.236 465.593,-134.176"/>
<polygon fill="black" stroke="black" points="462.098,-133.989 464.916,-144.202 469.082,-134.461 462.098,-133.989"/>
</g>
<!-- 4&#45;&gt;0 -->
<g id="edge37" class="edge"><title>4&#45;&gt;0</title>
<path fill="none" stroke="black" d="M437.326,-78.9078C419.367,-68.1469 394.118,-51.5623 375.469,-38.4146"/>
<polygon fill="black" stroke="black" points="377.328,-35.4411 367.16,-32.4634 373.252,-41.1319 377.328,-35.4411"/>
</g>
<!-- 4&#45;&gt;5 -->
<g id="edge39" class="edge"><title>4&#45;&gt;5</title>
<path fill="none" stroke="black" d="M443.155,-104.891C435.791,-110.812 426.557,-116.937 417,-120 380.178,-131.8 105.822,-131.8 69,-120 62.728,-117.99 56.5954,-114.661 51.0391,-110.937"/>
<polygon fill="black" stroke="black" points="52.9698,-108.012 42.845,-104.891 48.8136,-113.644 52.9698,-108.012"/>
</g>
<!-- 4&#45;&gt;6 -->
<g id="edge41" class="edge"><title>4&#45;&gt;6</title>
<path fill="none" stroke="black" d="M443.155,-104.891C435.791,-110.812 426.557,-116.937 417,-120 391.605,-128.138 382.395,-128.138 357,-120 350.728,-117.99 344.595,-114.661 339.039,-110.937"/>
<polygon fill="black" stroke="black" points="340.97,-108.012 330.845,-104.891 336.814,-113.644 340.97,-108.012"/>
</g>
<!-- 5&#45;&gt;13 -->
<g id="edge51" class="edge"><title>5&#45;&gt;13</title>
<path fill="none" stroke="black" d="M45.6179,-103.248C56.6092,-112.872 70.2603,-126.172 81.1073,-137.684"/>
<polygon fill="black" stroke="black" points="78.76,-140.302 88.1016,-145.301 83.916,-135.568 78.76,-140.302"/>
</g>
<!-- 5&#45;&gt;7 -->
<g id="edge49" class="edge"><title>5&#45;&gt;7</title>
<path fill="none" stroke="black" d="M46.816,-77.4586C70.5197,-64.6444 110.143,-44.8069 138.346,-31.6162"/>
<polygon fill="black" stroke="black" points="139.823,-34.7892 147.433,-27.4174 136.887,-28.4347 139.823,-34.7892"/>
</g>
<!-- 5&#45;&gt;1 -->
<g id="edge45" class="edge"><title>5&#45;&gt;1</title>
<path fill="none" stroke="black" d="M48.375,-101.272C54.7773,-103.223 61.1796,-103.892 67.5818,-103.281"/>
<polygon fill="black" stroke="black" points="68.5245,-106.662 77.6426,-101.267 67.15,-99.7984 68.5245,-106.662"/>
</g>
<!-- 5&#45;&gt;4 -->
<g id="edge47" class="edge"><title>5&#45;&gt;4</title>
<path fill="none" stroke="black" d="M39.8501,-105.969C48.6099,-115.518 61.1102,-126.781 75,-132 109.948,-145.131 376.052,-145.131 411,-132 421.417,-128.086 431.053,-120.772 438.915,-113.331"/>
<polygon fill="black" stroke="black" points="441.637,-115.555 446.15,-105.969 436.644,-110.648 441.637,-115.555"/>
</g>
<!-- 6&#45;&gt;14 -->
<g id="edge59" class="edge"><title>6&#45;&gt;14</title>
<path fill="none" stroke="black" d="M333.618,-103.248C344.609,-112.872 358.26,-126.172 369.107,-137.684"/>
<polygon fill="black" stroke="black" points="366.76,-140.302 376.102,-145.301 371.916,-135.568 366.76,-140.302"/>
</g>
<!-- 6&#45;&gt;7 -->
<g id="edge57" class="edge"><title>6&#45;&gt;7</title>
<path fill="none" stroke="black" d="M291.767,-80.7347C266.68,-69.3191 227.024,-49.6872 199.962,-35.4194"/>
<polygon fill="black" stroke="black" points="201.43,-32.2358 190.959,-30.6187 198.136,-38.4124 201.43,-32.2358"/>
</g>
<!-- 6&#45;&gt;2 -->
<g id="edge53" class="edge"><title>6&#45;&gt;2</title>
<path fill="none" stroke="black" d="M293.643,-101.267C287.24,-103.22 280.838,-103.892 274.436,-103.283"/>
<polygon fill="black" stroke="black" points="274.867,-99.8001 264.375,-101.272 273.495,-106.664 274.867,-99.8001"/>
</g>
<!-- 6&#45;&gt;4 -->
<g id="edge55" class="edge"><title>6&#45;&gt;4</title>
<path fill="none" stroke="black" d="M327.85,-105.969C336.61,-115.518 349.11,-126.781 363,-132 382.97,-139.504 391.03,-139.504 411,-132 421.417,-128.086 431.053,-120.772 438.915,-113.331"/>
<polygon fill="black" stroke="black" points="441.637,-115.555 446.15,-105.969 436.644,-110.648 441.637,-115.555"/>
</g>
<!-- 15&#45;&gt;13 -->
<g id="edge129" class="edge"><title>15&#45;&gt;13</title>
<path fill="none" stroke="black" d="M369.971,-104.109C366.721,-105.574 363.323,-106.92 360,-108 267.446,-138.097 236.554,-113.903 144,-144 140.038,-145.288 135.968,-146.953 131.943,-148.749"/>
<polygon fill="black" stroke="black" points="130.283,-145.661 122.701,-153.062 133.243,-152.005 130.283,-145.661"/>
</g>
<!-- 15&#45;&gt;11 -->
<g id="edge127" class="edge"><title>15&#45;&gt;11</title>
<path fill="none" stroke="black" d="M367.041,-102.619C343.326,-115.433 303.815,-135.212 275.67,-148.376"/>
<polygon fill="black" stroke="black" points="273.844,-145.364 266.233,-152.735 276.779,-151.719 273.844,-145.364"/>
</g>
<!-- 15&#45;&gt;14 -->
<g id="edge131" class="edge"><title>15&#45;&gt;14</title>
<path fill="none" stroke="black" d="M392.895,-107.593C393.709,-115.586 393.942,-125.236 393.593,-134.176"/>
<polygon fill="black" stroke="black" points="390.098,-133.989 392.916,-144.202 397.082,-134.461 390.098,-133.989"/>
</g>
<!-- 15&#45;&gt;7 -->
<g id="edge125" class="edge"><title>15&#45;&gt;7</title>
<path fill="none" stroke="black" d="M363.136,-81.5149C356.241,-78.2859 348.885,-74.7306 342,-72 295.626,-53.6093 240.434,-37.923 205.419,-28.2714"/>
<polygon fill="black" stroke="black" points="206.238,-24.8667 195.668,-25.5928 204.383,-31.6166 206.238,-24.8667"/>
</g>
</g>
</svg>
